/* XPM */
static char *_8c6fa3656094571cc3a32cb4de5b65fDagNtxWwUE5Ip0dj[] = {
/* columns rows colors chars-per-pixel */
"32 32 3 1 ",
"  c black",
". c #E74C3C",
"X c white",
/* pixels */
"                                ",
"                                ",
"                                ",
"          XXXXXXXXXX            ",
"          XXXXXXXXXX            ",
"      XXXXXXXXXXXXXXXXXX        ",
"      XXXXXXXXXXXXXXXXXX        ",
"    XXXXXXXXXXXXXXXXXXXXXX      ",
"    XXXXXXXXXXXXXXXXXXXXXX      ",
"    XX  XX  XXXXXXXXXXXXXX      ",
"    XX  XX  XXXXXXXXXXXXXX      ",
"  XXXX  XX  XXXXXXXX    XXXX    ",
"  XXXX  XX  XXXXXXXX    XXXX    ",
"  XXXXXXXXXXXXXXXX  XXXX  XX    ",
"  XXXXXXXXXXXXXXXX  XXXX  XX    ",
"  XX..XX..XX..XXXXXXXXXX  XX    ",
"  XX..XX..XX..XXXXXXXXXX  XX    ",
"  XX..........XXXXXXXX  XXXXXX  ",
"  XX..........XXXXXXXX  XXXXXX  ",
"  XX..........XXXXXXXXXXXXXXXX  ",
"  XX..........XXXXXXXXXXXXXXXX  ",
"    XX..........XXXXXXXXXXXXXX  ",
"    XX..........XXXXXXXXXXXXXX  ",
"    XX..XX..XX..XXXXXXXXXXXX    ",
"    XX..XX..XX..XXXXXXXXXXXX    ",
"      XXXXXXXXXXXXXXXXXX        ",
"      XXXXXXXXXXXXXXXXXX        ",
"            XXXXXXXX            ",
"            XXXXXXXX            ",
"                                ",
"                                ",
"                                "
};
