/* XPM */
static char *f6e5034af6df4ce2df4d0b3681867fe4xMlx6eoxsSLmodJ2[] = {
/* columns rows colors chars-per-pixel */
"32 32 65 1 ",
"  c None",
". c black",
"X c #151F08",
"o c #171F10",
"O c #181F13",
"+ c #1F2F0A",
"@ c #375212",
"# c #405E1A",
"$ c #406015",
"% c #496D18",
"& c #445E25",
"* c #4A5E3B",
"= c #D82800",
"- c #0FDC0A",
"; c #18DD0C",
": c #18DD0D",
"> c #19DD0F",
", c #1ADD13",
"< c #22DF0F",
"1 c #2BE112",
"2 c #3FE518",
"3 c #40E51D",
"4 c #48E71B",
"5 c #52E91E",
"6 c #45E52F",
"7 c #54E924",
"8 c #5CEB21",
"9 c #48E538",
"0 c #57E931",
"q c #65ED24",
"w c #78F12A",
"e c #4DDC48",
"r c #5FE94B",
"t c #93DB31",
"y c #8CF530",
"u c #95F733",
"i c #A9FB39",
"p c #AAFB3D",
"a c #AAFB3E",
"s c #AAFB3F",
"d c #87F15C",
"f c #ABFB40",
"g c #ABFB41",
"h c #A8FA43",
"j c #ACFB43",
"k c #ACFB45",
"l c #ADFB47",
"z c #AFFB4E",
"x c #A8F859",
"c c #B2FB59",
"v c #B3FB5D",
"b c #8DF170",
"n c #B4FB62",
"m c #B5FB64",
"M c #B7FB6C",
"N c #B9FB72",
"B c #BCFB7A",
"V c #BDFB7E",
"C c #A7F584",
"Z c #BEFB82",
"A c #BFFB85",
"S c #C0FB89",
"D c #C3FB94",
"F c #C6FB9F",
"G c white",
/* pixels */
"................................",
"..........GG........GG..........",
"..........GG........GG..........",
"...........G........G...........",
"...........GG......GG...........",
"..........=.G......G.=..........",
".........GG.GG....GG.GG.........",
".........GG=.GG..GG.=GG.........",
".........GG==.GGGG.==GG.........",
".........G====.GG.====G.........",
"..........=====..=====..........",
"..........GGG======GGG..........",
"...........GGG====GGG...........",
".............G====G.............",
"...............==...............",
"...............ee...............",
"...............ee...............",
"...............ee...............",
"..........eee..ee..eee..........",
".........e..eeeeeeee..e.........",
".........eee.e.ee.e.eee.........",
"..........eee..ee..eee..........",
"............. .... .............",
".......@tttttttttttttttt$.......",
".......&V;dzMmy0-----54x%.......",
".......&a;wzvmy0-----54x%.......",
".......*l,wMSFyr-----wuC%.......",
".......#D;bhvly7-----2<h%.......",
"....... ................ .......",
"........oi68BS1n----1qZ+........",
"........+i38jl1h----52l+........",
"........Oa98SF1N----;wF+........"
};
