/* XPM */
static char *_2d372f776084118f86e0fc53ccc5cf8rkCDcmepY3kVIu4j[] = {
/* columns rows colors chars-per-pixel */
"32 32 4 1 ",
"  c None",
". c black",
"X c #FEBD25",
"o c white",
/* pixels */
"                                ",
"                                ",
"                                ",
"                                ",
"                                ",
"                                ",
"             ......             ",
"         ....XXXXXX....         ",
"         ....XXXXXX....         ",
"        .XXXXXXXXXXXXXX.        ",
"        .XXXXXooooXXXXX.        ",
"        .XXXXXooooXXXXX.        ",
"      ..XXXXXoXXXX.XXXXX..      ",
"      ..XXXXXoXXXX.XXXXX..      ",
"      ..XXXXXoXXXX.XXXXX..      ",
"      ..XXXXXoXXXX.XXXXX..      ",
"      ..XXXXXoXXXX.XXXXX..      ",
"      ..XXXXXoXXXX.XXXXX..      ",
"      ..XXXXXoXXXX.XXXXX..      ",
"      ..XXXXXoXXXX.XXXXX..      ",
"        .XXXXX....XXXXX.        ",
"        .XXXXX....XXXXX.        ",
"        .XXXXXXXXXXXXXX.        ",
"         ....XXXXXX....         ",
"         ....XXXXXX....         ",
"             ......             ",
"                                ",
"                                ",
"                                ",
"                                ",
"                                ",
"                                "
};
