/* XPM */
static char *_31c6c70078b4525c13d93b0492518bb3tFoTTkvatWP9FBw[] = {
/* columns rows colors chars-per-pixel */
"32 32 62 1 ",
"  c None",
". c black",
"X c #151F08",
"o c #171F10",
"O c #181F13",
"+ c #1F2F0A",
"@ c #375212",
"# c #405E1A",
"$ c #406015",
"% c #496D18",
"& c #445E25",
"* c #4A5E3B",
"= c #0FDC0A",
"- c #18DD0C",
"; c #18DD0D",
": c #19DD0F",
"> c #1ADD13",
", c #22DF0F",
"< c #2BE112",
"1 c #3FE518",
"2 c #40E51D",
"3 c #48E71B",
"4 c #52E91E",
"5 c #45E52F",
"6 c #54E924",
"7 c #5CEB21",
"8 c #48E538",
"9 c #57E931",
"0 c #65ED24",
"q c #78F12A",
"w c #5FE94B",
"e c #93DB31",
"r c #8CF530",
"t c #95F733",
"y c #A9FB39",
"u c #AAFB3D",
"i c #AAFB3E",
"p c #AAFB3F",
"a c #87F15C",
"s c #ABFB40",
"d c #ABFB41",
"f c #A8FA43",
"g c #ACFB43",
"h c #ACFB45",
"j c #ADFB47",
"k c #AFFB4E",
"l c #A8F859",
"z c #B2FB59",
"x c #B3FB5D",
"c c #8DF170",
"v c #B4FB62",
"b c #B5FB64",
"n c #B7FB6C",
"m c #B9FB72",
"M c #BCFB7A",
"N c #BDFB7E",
"B c #A7F584",
"V c #BEFB82",
"C c #BFFB85",
"Z c #C0FB89",
"A c #C3FB94",
"S c #C6FB9F",
/* pixels */
"................................",
"................................",
"................................",
"................................",
"................................",
"................................",
"................................",
"................................",
"................................",
"................................",
"................................",
"................................",
"................................",
"................................",
"................................",
"................................",
"................................",
"................................",
"................................",
"................................",
"................................",
"................................",
"................................",
".......@eeeeeeeeeeeeeeee$.......",
".......&N-aknbr9=====43l%.......",
".......&i-qkxbr9=====43l%.......",
".......*j>qnZSrw=====qtB%.......",
".......#A-cfxjr6=====1,f%.......",
"....... ................ .......",
"........oy57MZ<v====<0V+........",
"........+y27gj<f====41j+........",
"........Oi87ZS<m====-qS+........"
};
