/* XPM */
static char *result[] = {
/* columns rows colors chars-per-pixel */
"32 32 15 1 ",
"  c black",
". c #523B00",
"X c red",
"o c #FF592D",
"O c #FF5A2D",
"+ c #96006F",
"@ c #FFEA00",
"# c #FECC69",
"$ c #FFCD69",
"% c #6A579F",
"& c #79668F",
"* c #3826D5",
"= c #1100FF",
"- c white",
"; c None",
/* pixels */
";;;;;;;;;;;;;;;;;;;;;;;;;;;;;;;;",
";;;;;;;;;;;;;;;;;;;;;;;;;;;;;;;;",
";;;;;;;;;XXXXXXXXXXXXX;;;;;;;;;;",
";;;;;;;;XXXXXXXXXXXXXXX;;;;;;;;;",
";;;;;;;;XXXXXXXXXXXXXXX;;;;;;;;;",
";;;;;;;;.$$--$$$$$--$$.;;;;;;;;;",
";;;;;;..$--==--$--==--$..;;;;;;;",
";;;;;;..$--==--$--==--$..;;;;;;;",
";;;;;;..$--==--$--==--$..;;;;;;;",
";;;;;;;;$  --$$$$$--  $;;;;;;;;;",
";;;;;;;;;      $      ;;;;;;;;;;",
";;;;;;;;;      $      ;;;;;;;;;;",
";;;;;;;;;;;$$$$$$$$$;;;;;;;;;;;;",
";;;;;;;;XXX==XXXXX==XXX;;;;;;;;;",
";;;;;;;;XXX==XXXXX==XXX;;;;;;;;;",
";;;;;;XXXXX==XXXXX==XXXXX;;;;;;;",
";;;;;;XXXXX==XXXXX==XXXXX;;;;;;;",
";;;;XXXXXXX=========XXXXXXX;;;;;",
";;;;XXXXXXX=========XXXXXXX;;;;;",
";;;;ooooX++&&**===&&++XOOOO;;;;;",
";;;;$$$$X==@@%%===@@==X$$$$;;;;;",
";;;;$$$$X==@@%%===@@==X$$$$;;;;;",
";;;;$$$$$=============#$$$$;;;;;",
";;;;$$$$===============$$$$;;;;;",
";;;;$$$$===============$$$$;;;;;",
";;;;$$$$===============$$$$;;;;;",
";;;;;;;;=====;;;;;=====;;;;;;;;;",
";;;;;;.....;;;;;;;;;.....;;;;;;;",
";;;;;;.....;;;;;;;;;.....;;;;;;;",
";;;;.......;;;;;;;;;.......;;;;;",
";;;;;;;;;;;;;;;;;;;;;;;;;;;;;;;;",
";;;;;;;;;;;;;;;;;;;;;;;;;;;;;;;;"
};
