/* XPM */
static char *_77fd7a50be64a48a933f6014ea570a4EJ4KfbVRptuwuqto[] = {
/* columns rows colors chars-per-pixel */
"32 32 12 1 ",
"  c None",
". c black",
"X c #523B00",
"o c red",
"O c #A5005F",
"+ c #FFEA00",
"@ c #B4A04F",
"# c #FF8C48",
"$ c #FFCD69",
"% c #5B00AF",
"& c #1100FF",
"* c white",
/* pixels */
"                                ",
"           ooooooooo            ",
"           ooooooooo            ",
"          ooooooooooooooooo     ",
"          ooooooooooooooooo     ",
"          XXXXX$$**&$$$         ",
"          XXXXX$$**&$$$         ",
"       XXX$XXX$$$**&$$$$$$$     ",
"       XXX$XXX$$$**&$$$$$$$     ",
"       XXX$XXXX$$$$$...$$$$$$   ",
"       XXX$XXXX$$$$$...$$$$$$   ",
"       XXXX$$$$$$$$........     ",
"       XXXX$$$$$$$$........     ",
"           $$$$$$$$$$$$$        ",
"           $$$$$$$$$$$$$        ",
"          oooo&ooooo            ",
"       ooooooo&oooo&ooooooo     ",
"       ooooooo&OOOO&ooooooo     ",
"     ooooooooo&&&&&&ooooooooo   ",
"     #####o%%%@&&&&@%%%o#####   ",
"     $$$$$o&&&+&&&&+&&&o$$$$$   ",
"     $$$$$$&&&&&&&&&&&&$$$$$$   ",
"     $$$$$$&&&&&&&&&&&&$$$$$$   ",
"     $$$$$&&&&&&&&&&&&&&$$$$$   ",
"     $$$$$&&&&&&&&&&&&&&$$$$$   ",
"          &&&&&    &&&&&        ",
"          &&&&&    &&&&&        ",
"       XXXXXXX      XXXXXXX     ",
"       XXXXXXX      XXXXXXX     ",
"     XXXXXXXXX      XXXXXXXXX   ",
"     XXXXXXXXX      XXXXXXXXX   ",
"                                "
};
