/* XPM */
static char *result[] = {
/* columns rows colors chars-per-pixel */
"32 32 13 1 ",
"  c #523B00",
". c red",
"X c #FF592D",
"o c #FF5A2D",
"O c #96006F",
"+ c #FFEA00",
"@ c #FECC69",
"# c #FFCD69",
"$ c #6A579F",
"% c #79668F",
"& c #3826D5",
"* c #1100FF",
"= c None",
/* pixels */
"================================",
"================================",
"=========............===========",
"=========............===========",
"=======................=========",
"=======................=========",
"=======................=========",
"======                  ========",
"======                  ========",
"=======##            ##=========",
"=======##            ##=========",
"=========            ===========",
"===========########=============",
"===========########=============",
"=======....*......*....=========",
"=======....*......*....=========",
"======.....*......*.....========",
"====.......********.......======",
"====.......********.......======",
"====XXX..OO%&&****%OO..ooo======",
"====XXX..OO%&&****%OO..ooo======",
"====###..**+$$****+**..###======",
"====#####************@@###======",
"====#####************@@###======",
"====###****************###======",
"====###****************###======",
"=======*****======*****=========",
"=======*****======*****=========",
"======     ========     ========",
"====       ========       ======",
"====       ========       ======",
"================================"
};
