/* XPM */
static char *dbff32320b554f9fb17ae423f28d7c66dCbb1e9ZZJjhMTFq[] = {
/* columns rows colors chars-per-pixel */
"32 32 13 1 ",
"  c None",
". c black",
"X c #523B00",
"o c #FE0000",
"O c red",
"+ c #A5005F",
"@ c #FFEA00",
"# c #B4A04F",
"$ c #FF8C48",
"% c #FFCD69",
"& c #5B00AF",
"* c #1100FF",
"= c white",
/* pixels */
"                                ",
"            OOOOOOOOO           ",
"            OOOOOOOOO           ",
"     OOOOOOOOOOOOOOOOO          ",
"     OOOOOOOOOOOOOOOOO          ",
"         %%%*==%%XXXXX          ",
"         %%%*==%%XXXXX          ",
"     %%%%%%%*==%%%XXX%XXX       ",
"     %%%%%%%*==%%%XXX%XXX       ",
"   %%%%%%...%%%%%XXXX%XXX       ",
"   %%%%%%...%%%%%XXXX%XXX       ",
"     ........%%%%%%%%XXXX       ",
"     ........%%%%%%%%XXXX       ",
"        %%%%%%%%%%%%%           ",
"        %%%%%%%%%%%%%           ",
"            OOOOO*OOOO          ",
"     OOOOOOO*OOOO*OOOOOOO       ",
"   OOOOOOOOO*++++*OOOOOOOOO     ",
"   OOOOOOOOO******OOOOOOOOO     ",
"   $$$$$O&&&#****#&&&O$$$$$     ",
"   %%%%%O***@****@***O%%%%%     ",
"   %%%%%%************%%%%%%     ",
"   %%%%%%************%%%%%%     ",
"   %%%%%**************%%%%%     ",
"   %%%%%**************%%%%%     ",
"        *****    *****          ",
"        *****    *****          ",
"     XXXXXXX      XXXXXXX       ",
"     XXXXXXX      XXXXXXX       ",
"   XXXXXXXXX      XXXXXXXXX     ",
"   XXXXXXXXX      XXXXXXXXX     ",
"                                "
};
