/* XPM */
static char *_3aa1b7869634952e04ad6dd0b2dba57XJ62tIexmk6SduKR[] = {
/* columns rows colors chars-per-pixel */
"32 32 2 1 ",
"  c black",
". c #D26B20",
/* pixels */
"..............  ..............  ",
"..............  ..............  ",
"..............  ..............  ",
"..............  ..............  ",
"..............  ..............  ",
"..............  ..............  ",
"                                ",
"                                ",
"......  ................  ......",
"......  ................  ......",
"......  ................  ......",
"......  ................  ......",
"......  ................  ......",
"......  ................  ......",
"                                ",
"                                ",
"..............  ..............  ",
"..............  ..............  ",
"..............  ..............  ",
"..............  ..............  ",
"..............  ..............  ",
"..............  ..............  ",
"                                ",
"                                ",
"......  ................  ......",
"......  ................  ......",
"......  ................  ......",
"......  ................  ......",
"......  ................  ......",
"......  ................  ......",
"                                ",
"                                "
};
